<?xml version="1.0" standalone="no"?>
<!DOCTYPE svg PUBLIC "-//W3C//DTD SVG 20010904//EN"
 "http://www.w3.org/TR/2001/REC-SVG-20010904/DTD/svg10.dtd">
<svg version="1.0" xmlns="http://www.w3.org/2000/svg"
 width="857.000000pt" height="643.000000pt" viewBox="0 0 857.000000 643.000000"
 preserveAspectRatio="xMidYMid meet">
<g transform="translate(0.000000,643.000000) scale(0.100000,-0.100000)"
fill="#000000" stroke="none">
<path d="M7900 6405 c-77 -17 -170 -62 -223 -106 -21 -17 -1042 -1130 -2269
-2473 -1227 -1342 -2245 -2456 -2263 -2474 l-32 -34 -1067 1139 c-587 626
-1098 1167 -1136 1203 -122 118 -249 166 -415 157 -54 -3 -114 -14 -150 -26
-127 -45 -241 -147 -303 -271 -37 -75 -37 -75 -40 -220 -4 -165 8 -213 76
-314 38 -56 2584 -2770 2686 -2863 31 -29 87 -67 124 -85 l67 -33 165 0 165 0
66 33 c36 18 83 47 104 64 28 24 4714 5143 4958 5418 219 245 168 636 -105
811 -116 75 -277 104 -408 74z"/>
</g>
</svg>
